<?xml version="1.0" encoding="UTF-8" standalone="no"?>
<!DOCTYPE svg PUBLIC "-//W3C//DTD SVG 1.1//EN" "http://www.w3.org/Graphics/SVG/1.1/DTD/svg11.dtd">
<svg viewBox="0 0 1011 541" version="1.1" xmlns="http://www.w3.org/2000/svg" xmlns:xlink="http://www.w3.org/1999/xlink" xml:space="preserve" xmlns:serif="http://www.serif.com/" style="fill-rule:evenodd;
	clip-rule:evenodd;
	stroke-linejoin:round;
	stroke-miterlimit:2;">
	<g transform="matrix(1,0,0,1,-0.00673563,-16.2583)">
		<g transform="matrix(1,0,0,1,-0.00122722,-0.0377223)">
			<g id="shapes">
				<g transform="matrix(1,0,0,1,-213.84,-338.21)">
					<path d="M968.69,566.33C968.69,566.33 949.43,606.45 971.4,618.8C993.37,631.15 1025.47,613.86 1034.12,586.7C1042.77,559.54 1035.77,543.49 1010.25,536.09C984.73,528.69 977.08,548.43 968.69,566.33" style="fill:rgb(148, 64, 160);
	fill-rule:nonzero;" />
				</g>
				<g transform="matrix(1,0,0,1,-213.84,-338.21)">
					<path d="M1129,627.58C1129,627.58 1134.74,614.4 1149.2,623.27C1163.66,632.14 1175.78,649.76 1161.31,660.03C1146.84,670.3 1132.41,649.19 1130.24,646.03C1124.34,637.5 1129,627.56 1129,627.56" style="fill:rgb(203, 86, 153);
	fill-rule:nonzero;" />
				</g>
				<g transform="matrix(1,0,0,1,-213.84,-338.21)">
					<path d="M317,649.1C322.25,638.17 324.74,626.1 329.6,615.01C334.46,603.92 342.53,593.2 354.17,589.81C377.83,582.92 401.45,608.81 425.41,603.1C436.89,600.36 445.41,590.9 452.53,581.49C464.69,565.41 475.17,547.7 480.25,528.19C485.33,508.68 484.61,487.19 475.31,469.29C466.37,452.1 450.36,439.59 433.31,430.39C399,411.83 357.89,404.88 319.93,414.1C281.97,423.32 247.82,449.39 231.54,484.9C221.62,506.52 218.43,530.55 216.13,554.23C212.13,595.43 211.13,640.12 232.57,677.09C252.61,711.64 304.43,675.31 317,649.1Z" style="fill:rgb(49, 140, 231);
	fill-rule:nonzero;" />
				</g>
				<g transform="matrix(1,0,0,1,-213.84,-338.21)">
					<path d="M401.61,426.36C402.22,427.11 402.85,427.84 403.51,428.55C418.36,444.62 445.51,452.14 463.27,437.21C476.9,425.73 482.76,405.78 477.32,388.82C468.67,361.82 432.02,347.43 406.45,357.98C401.74,359.93 397.28,362.87 394.45,367.12C392.798,369.766 391.589,372.664 390.87,375.7C386.26,393 390.23,412.55 401.61,426.36Z" style="fill:rgb(100, 173, 102);
	fill-rule:nonzero;" />
				</g>
				<g transform="matrix(1,0,0,1,-213.84,-338.21)">
					<path d="M708.54,557.3C712.77,556.69 716.99,556.01 721.23,555.51C732.87,554.12 744.54,553.27 756.23,554.28C762.67,554.791 769.013,556.16 775.09,558.35C775.807,558.6 776.506,558.901 777.18,559.25C778.315,559.758 779.049,560.891 779.049,562.134C779.049,563.29 778.415,564.357 777.4,564.91C776.575,565.434 775.688,565.854 774.76,566.16C757.52,571.49 740.02,574.63 721.89,572.3C718.603,571.946 715.348,571.348 712.15,570.51C700.64,567.24 689.95,569.66 679.62,574.88C676.68,576.37 673.83,578.05 670.93,579.64C670.5,579.87 670.07,580.09 669.62,580.29C667.99,581 666.62,580.71 665.87,579.52C665.13,578.241 665.518,576.586 666.75,575.77C669.98,573.08 673.18,570.32 676.57,567.84C679.058,566.073 680.961,563.599 682.03,560.74C683.47,556.89 685.11,553.04 685.91,549.03C687.883,539.383 692.329,530.412 698.81,523C704.73,516 711.05,509.51 718.98,504.79C720.121,504.064 721.335,503.458 722.6,502.98C725.3,502.06 727.54,503.89 727.02,506.7C726.703,508.736 726.062,510.708 725.12,512.54C720.67,520.47 716.12,528.37 711.41,536.12C708.49,540.9 705.12,545.41 701.65,550.47C704.24,549.01 706.38,547.67 708.65,546.56C714.04,543.9 718.16,539.66 722.65,535.78C728.85,530.38 733.56,523.78 738.65,517.43C746.484,507.51 755.262,498.374 764.86,490.15C771,484.98 777.19,479.88 784.21,475.92C786.56,474.6 789.09,473.61 791.56,472.5C791.961,472.334 792.381,472.22 792.81,472.16C797.81,471.16 800.4,473.66 799.32,478.66C798.32,483.28 795.82,487.14 792.97,490.8C786.97,498.49 779.18,504.1 771.07,509.24C757.65,517.77 745.07,527.45 732.38,536.97C730.38,538.46 728.38,539.97 726.46,541.63C726.95,541.45 727.46,541.29 727.92,541.08C740.67,535.49 753.32,529.65 766.19,524.37C781.85,517.854 797.971,512.506 814.42,508.37C817.88,507.51 821.42,507.12 824.99,506.55C825.526,506.468 826.07,506.451 826.61,506.5C829.85,506.74 831.49,509.5 829.61,512.09C827.801,514.509 825.687,516.684 823.32,518.56C814.32,525.93 803.6,529.95 792.67,533.47C784.11,536.22 775.22,537.31 766.44,538.97C758.302,540.502 750.283,542.603 742.44,545.26C736.95,547.12 731.26,548.37 725.78,550.26C720.3,552.15 715.17,554.26 709.88,556.37C709.402,556.593 708.941,556.851 708.5,557.14L708.54,557.3Z" style="fill:rgb(100, 173, 102);
	fill-rule:nonzero;" />
				</g>
				<g transform="matrix(1,0,0,1,-213.84,-338.21)">
					<path d="M869.22,716.79C871.83,711.73 878.38,710.67 881.85,714.79C882.92,716.07 883.56,717.7 884.54,719.06C887.34,722.94 889.98,726.98 893.13,730.56C896.41,734.3 900.9,735.24 905.7,734.02C909.97,732.93 914.18,731.58 918.44,730.42C930.16,727.24 937.77,730.07 944.62,740.08C947.12,743.72 949.62,747.38 952.22,750.92C956.58,756.75 962.56,758.83 969.63,757.78C973.99,757.13 978.3,756.08 982.63,755.39C988.73,754.39 994.78,754.2 1000.41,757.49C1004.31,759.76 1006.88,763.21 1008.93,767.08C1010.72,770.49 1012.29,774.02 1014.12,777.42C1015.36,779.665 1016.72,781.842 1018.19,783.94C1019.8,786.541 1022.87,787.882 1025.87,787.3C1029.44,786.78 1033.02,786.25 1036.61,785.93C1046.54,785.06 1054.84,788.85 1062.08,795.27C1063.72,796.626 1064.66,798.645 1064.66,800.77C1064.66,804.689 1061.44,807.914 1057.52,807.914C1055.86,807.914 1054.24,807.333 1052.96,806.27C1046.33,800.61 1038.96,799.44 1030.66,801.27C1018.61,803.95 1009.84,799.02 1003.82,788.72C1001.32,784.43 999.21,779.91 996.96,775.47C993.96,769.47 992.35,768.6 985.7,769.63C981.7,770.26 977.7,771.19 973.64,771.91C959.13,774.5 947.64,769.71 939.05,757.75C936.77,754.56 934.66,751.23 932.41,748.01C929.26,743.51 927.65,742.93 922.41,744.38C918,745.6 913.65,747.06 909.2,748.13C899.05,750.55 890.2,748.13 882.62,740.83C877.369,735.614 873.125,729.475 870.1,722.72C869.32,721 869.5,718.79 869.22,716.79Z" style="fill:rgb(255, 206, 3);
	fill-rule:nonzero;" />
				</g>
				<g transform="matrix(1,0,0,1,-213.84,-338.21)">
					<path d="M496.28,447.59C494.57,443.33 497.37,438.77 501.74,438.84C503.08,438.84 504.41,439.33 505.74,439.45C509.58,439.79 513.44,440.3 517.28,440.27C521.28,440.27 524.28,437.99 526.01,434.42C527.6,431.23 529.01,427.96 530.53,424.75C534.76,415.92 540.53,412.75 550.22,413.85C553.75,414.25 557.29,414.68 560.83,414.92C566.69,415.33 571.11,412.78 574.19,407.92C576.09,404.92 577.72,401.74 579.59,398.72C582.21,394.48 585.27,390.72 590.24,388.97C593.603,387.939 597.191,387.891 600.58,388.83C603.58,389.53 606.58,390.43 609.58,391.11C611.605,391.533 613.652,391.85 615.71,392.06C618.142,392.429 620.565,391.267 621.8,389.14C623.36,386.68 624.93,384.22 626.63,381.86C631.32,375.34 638.01,372.27 645.74,371.24C645.969,371.212 646.199,371.199 646.43,371.199C649.59,371.199 652.19,373.799 652.19,376.959C652.19,379.663 650.285,382.022 647.64,382.59C640.64,383.65 636.1,387.53 632.85,393.59C628.14,402.36 620.51,405.11 611.06,403.36C607.12,402.63 603.24,401.54 599.35,400.57C594.13,399.28 592.73,399.77 589.86,404.36C588.12,407.16 586.58,410.09 584.86,412.93C578.8,423.15 569.8,427.66 558,426.58C554.85,426.29 551.71,425.83 548.55,425.51C544.15,425.05 542.94,425.73 541.08,429.68C539.5,433.02 538.08,436.44 536.41,439.68C532.55,447.153 526.4,451.277 517.96,452.05C512.011,452.508 506.027,451.868 500.31,450.16C498.91,449.75 497.65,448.47 496.28,447.59Z" style="fill:rgb(239, 132, 37);
	fill-rule:nonzero;" />
				</g>
				<g>
					<g transform="matrix(1,0,0,1,-213.84,-338.21)">
						<path d="M1185.76,619.44C1196.94,614.33 1206.97,607.001 1215.23,597.9C1216.37,596.509 1217.4,595.028 1218.3,593.47C1220.1,588.22 1217.58,584.63 1213.14,584.89C1211.29,585.048 1209.48,585.51 1207.78,586.26C1195.93,591.17 1186.2,598.98 1177.9,608.64C1176.38,610.43 1174.95,612.299 1173.63,614.24C1172.69,615.61 1172.41,617.15 1173.7,618.51C1175.7,620.6 1177.95,621.87 1180.97,620.88C1182.59,620.495 1184.19,620.015 1185.76,619.44Z" style="fill:rgb(223, 59, 75);
	fill-rule:nonzero;" />
					</g>
					<g transform="matrix(1,0,0,1,-213.84,-338.21)">
						<path d="M1191.66,635.09C1195.45,634.56 1199.2,633.71 1202.94,632.84C1209.94,631.23 1216.29,628.31 1221.49,623.23C1222.37,622.289 1223.17,621.287 1223.9,620.23C1225.12,616.55 1223.33,613.97 1219.7,613.11C1215.14,612.02 1210.86,613.31 1206.62,614.74C1198.82,617.37 1191.88,621.74 1184.76,625.74C1183.5,626.514 1182.42,627.559 1181.61,628.8C1179.79,631.5 1181.09,634.69 1184.3,635.14C1186.74,635.463 1189.22,635.447 1191.66,635.09Z" style="fill:rgb(223, 59, 75);
	fill-rule:nonzero;" />
					</g>
					<g transform="matrix(1,0,0,1,-213.84,-338.21)">
						<path d="M1195.85,653.44C1202.63,652.676 1209.24,650.822 1215.43,647.95C1217.84,646.704 1220.06,645.136 1222.04,643.29C1223.47,642.089 1223.96,640.082 1223.23,638.36C1222.57,636.622 1220.91,635.459 1219.05,635.44C1216.96,635.197 1214.85,635.251 1212.78,635.6C1206.7,637.01 1200.66,638.6 1194.67,640.36C1192.8,641.014 1191.05,641.948 1189.46,643.13C1187.6,644.389 1186.75,646.708 1187.35,648.87C1187.79,651.024 1189.36,652.782 1191.45,653.47C1192.92,653.55 1194.38,653.54 1195.85,653.44Z" style="fill:rgb(223, 59, 75);
	fill-rule:nonzero;" />
					</g>
				</g>
				<g transform="matrix(1,0,0,1,-213.84,-338.21)">
					<path d="M932.34,543.76C934.117,547.665 936.56,551.232 939.56,554.3C948.04,563.11 961.19,568.18 972.88,562.14C981.17,557.85 987.67,547.24 990.02,538.53C992.46,529.53 991.44,523.2 986.52,515.46C980.32,505.73 968.95,498.27 958.75,506.4C954.46,509.82 950.75,513.76 946.27,517.03C942.18,520.03 936.71,522.21 933.57,526.36C929.44,531.79 929.87,538.06 932.34,543.76Z" style="fill:rgb(117, 97, 193);
	fill-rule:nonzero;" />
				</g>
				<g>
					<g transform="matrix(1,0,0,1,-213.84,-338.21)">
						<path d="M391.85,725.67C392.361,724.342 392.629,722.933 392.64,721.51C392.79,713.45 388.81,706.73 380.08,706.86C374.45,706.94 368.83,707.86 365.93,713.26C363.59,717.58 363.26,726.08 365.64,730.94C368.02,735.8 371.64,735.14 376.64,734.41C383,733.47 389.61,731.37 391.85,725.67Z" style="fill:rgb(148, 64, 160);
	fill-rule:nonzero;" />
					</g>
					<g transform="matrix(1,0,0,1,-213.84,-338.21)">
						<path d="M337.37,731.64C338.91,724.16 331.63,717.05 324.13,718.36C318.4,719.36 315.95,720.16 315.78,726.74C315.66,731.17 316.06,736.41 319.5,739.09C324.06,742.64 333.86,739.29 336.37,734.44C336.832,733.558 337.169,732.615 337.37,731.64Z" style="fill:rgb(148, 64, 160);
	fill-rule:nonzero;" />
					</g>
					<g transform="matrix(1,0,0,1,-213.84,-338.21)">
						<path d="M370.71,675.78C373.15,669.78 366,669.27 362.29,670.23C357.18,671.56 352.9,673.53 354.04,679.92C356.25,692.39 365.87,681.5 370.71,675.78Z" style="fill:rgb(148, 64, 160);
	fill-rule:nonzero;" />
					</g>
					<g transform="matrix(1,0,0,1,-213.84,-338.21)">
						<path d="M289.87,740.94C289.41,735.3 289.49,733.35 283.77,732.13C278.96,731.13 276.59,734.13 275.05,738.79C271.79,748.68 285.39,748.1 289.87,740.94Z" style="fill:rgb(148, 64, 160);
	fill-rule:nonzero;" />
					</g>
					<g transform="matrix(1,0,0,1,-213.84,-338.21)">
						<path d="M339.94,772.38C341.19,767.92 340.65,762.92 335.46,762.93C332.95,762.93 330.27,763.93 329.17,766.36C327.32,770.53 336.11,775.93 338.67,773.08" style="fill:rgb(148, 64, 160);
	fill-rule:nonzero;" />
					</g>
				</g>
				<g transform="matrix(1,0,0,1,-213.84,-338.21)">
					<path d="M708.53,659.93C701.88,661.13 695.11,663.7 689.04,665.37C677.81,668.47 666.74,672.16 655.5,675.18C644.72,678.11 633.81,681.84 625.01,688.97C603.6,706.26 624.41,724.51 640.01,734.52C664.33,750.1 689.49,766.21 715.01,779.92C728.75,787.32 747.15,794.48 762.73,796.39C786.07,799.25 804.39,782.51 802.52,758.53C800.71,735.37 783.52,721.53 767.52,707.19C756.22,697.04 751.6,684.66 741.89,673.33C735.81,666.23 727.56,660.54 718.27,659.44C715.017,659.124 711.735,659.289 708.53,659.93Z" style="fill:rgb(255, 206, 3);
	fill-rule:nonzero;" />
				</g>
				<g transform="matrix(1,0,0,1,-213.84,-338.21)">
					<path d="M801.4,731C806.4,724.64 812.55,719.34 820.03,721.5C826.78,723.5 827.43,730.71 827.2,737.59C827.07,741.53 825.49,746.51 826.15,750.2C827.15,755.95 832.75,757.4 837.84,757.96C847.1,758.96 856.68,757.72 863,764.76C865.43,767.47 866.39,772.08 867,775.92C867.78,781.18 864.31,785.11 864.38,789.92C864.52,800.58 875.29,799.01 882.91,798.7C891.46,798.36 897.02,802.46 896.91,811.29C896.91,815.23 894.27,820.29 894.82,823.89C895.51,828.54 900.07,828.89 903.98,829.57C908.06,830.25 913.27,830.84 914.66,835.3C916.01,839.6 913.18,846.44 910.38,850.67C900.43,865.67 883.3,880.26 867.38,888.49C846.75,899.15 823.88,895.15 804.25,884.16C786.82,874.41 771.44,859.25 766.14,840C757.28,807.81 775.69,769.1 793.29,743C795.46,739.73 798.17,735.15 801.4,731Z" style="fill:rgb(117, 97, 193);
	fill-rule:nonzero;" />
				</g>
			</g>
		</g>
		<g transform="matrix(1,0,0,1,-0.00122722,-0.0377223)">
			<g transform="matrix(1,0,0,1,-64.1421,97.3018)">
				<g transform="matrix(100,0,0,100,229.45,148.492)">
					<path d="M0.737,-0L0.736,-0.464L0.506,-0.08L0.448,-0.08L0.218,-0.458L0.218,-0L0.094,-0L0.094,-0.7L0.201,-0.7L0.479,-0.236L0.752,-0.7L0.859,-0.7L0.86,-0L0.737,-0Z" style="fill-rule:nonzero;" />
				</g>
				<g transform="matrix(100,0,0,100,324.95,148.492)">
					<path d="M0.396,-0.247L0.396,-0L0.266,-0L0.266,-0.245L-0.009,-0.7L0.13,-0.7L0.335,-0.359L0.542,-0.7L0.67,-0.7L0.396,-0.247Z" style="fill-rule:nonzero;" />
				</g>
				<g transform="matrix(100,0,0,100,229.45,248.492)">
					<path d="M0.236,-0.59L0.004,-0.59L0.004,-0.7L0.598,-0.7L0.598,-0.59L0.366,-0.59L0.366,-0L0.236,-0L0.236,-0.59Z" style="fill-rule:nonzero;" />
				</g>
				<g transform="matrix(100,0,0,100,289.65,248.492)">
					<path d="M0.619,-0.109L0.619,-0L0.094,-0L0.094,-0.7L0.605,-0.7L0.605,-0.591L0.224,-0.591L0.224,-0.409L0.562,-0.409L0.562,-0.302L0.224,-0.302L0.224,-0.109L0.619,-0.109Z" style="fill-rule:nonzero;" />
				</g>
				<g transform="matrix(100,0,0,100,356.65,248.492)">
					<path d="M0.311,0.01C0.257,0.01 0.205,0.002 0.155,-0.013C0.104,-0.028 0.064,-0.049 0.035,-0.074L0.08,-0.175C0.109,-0.152 0.144,-0.134 0.186,-0.119C0.227,-0.105 0.269,-0.098 0.311,-0.098C0.363,-0.098 0.402,-0.106 0.428,-0.123C0.453,-0.14 0.466,-0.162 0.466,-0.189C0.466,-0.209 0.459,-0.226 0.445,-0.238C0.43,-0.252 0.412,-0.262 0.39,-0.269C0.368,-0.276 0.338,-0.285 0.3,-0.294C0.247,-0.307 0.203,-0.319 0.171,-0.332C0.138,-0.345 0.109,-0.365 0.086,-0.392C0.062,-0.419 0.05,-0.455 0.05,-0.501C0.05,-0.54 0.061,-0.575 0.082,-0.607C0.102,-0.638 0.134,-0.663 0.177,-0.682C0.219,-0.701 0.271,-0.71 0.332,-0.71C0.375,-0.71 0.417,-0.705 0.458,-0.694C0.499,-0.683 0.535,-0.668 0.565,-0.648L0.524,-0.547C0.493,-0.565 0.461,-0.579 0.428,-0.588C0.395,-0.597 0.362,-0.602 0.331,-0.602C0.28,-0.602 0.242,-0.593 0.217,-0.576C0.192,-0.559 0.179,-0.536 0.179,-0.507C0.179,-0.487 0.186,-0.471 0.201,-0.458C0.215,-0.445 0.233,-0.435 0.255,-0.428C0.277,-0.421 0.307,-0.412 0.345,-0.403C0.397,-0.391 0.44,-0.379 0.473,-0.366C0.506,-0.353 0.535,-0.333 0.559,-0.306C0.582,-0.279 0.594,-0.243 0.594,-0.198C0.594,-0.159 0.584,-0.124 0.563,-0.093C0.542,-0.062 0.51,-0.037 0.467,-0.018C0.424,0.001 0.372,0.01 0.311,0.01Z" style="fill-rule:nonzero;" />
				</g>
				<g transform="matrix(100,0,0,100,418.55,248.492)">
					<path d="M0.236,-0.59L0.004,-0.59L0.004,-0.7L0.598,-0.7L0.598,-0.59L0.366,-0.59L0.366,-0L0.236,-0L0.236,-0.59Z" style="fill-rule:nonzero;" />
				</g>
				<g transform="matrix(100,0,0,100,478.75,248.492)">
					<rect x="0.094" y="-0.7" width="0.13" height="0.7" style="fill-rule:nonzero;" />
				</g>
				<g transform="matrix(100,0,0,100,510.65,248.492)">
					<path d="M0.716,-0.7L0.716,-0L0.609,-0L0.223,-0.474L0.223,-0L0.094,-0L0.094,-0.7L0.201,-0.7L0.587,-0.226L0.587,-0.7L0.716,-0.7Z" style="fill-rule:nonzero;" />
				</g>
				<g transform="matrix(100,0,0,100,591.65,248.492)">
					<path d="M0.572,-0.358L0.695,-0.358L0.695,-0.079C0.659,-0.05 0.617,-0.028 0.569,-0.013C0.521,0.002 0.472,0.01 0.421,0.01C0.35,0.01 0.285,-0.006 0.228,-0.037C0.171,-0.068 0.126,-0.11 0.093,-0.165C0.06,-0.22 0.044,-0.281 0.044,-0.35C0.044,-0.419 0.06,-0.48 0.093,-0.535C0.126,-0.59 0.171,-0.632 0.229,-0.664C0.286,-0.695 0.351,-0.71 0.423,-0.71C0.482,-0.71 0.535,-0.7 0.583,-0.681C0.631,-0.662 0.671,-0.633 0.704,-0.596L0.622,-0.516C0.569,-0.569 0.504,-0.596 0.429,-0.596C0.38,-0.596 0.336,-0.586 0.298,-0.565C0.259,-0.544 0.229,-0.515 0.207,-0.478C0.186,-0.441 0.175,-0.398 0.175,-0.35C0.175,-0.303 0.186,-0.261 0.207,-0.224C0.229,-0.187 0.259,-0.157 0.298,-0.136C0.336,-0.115 0.379,-0.104 0.428,-0.104C0.483,-0.104 0.531,-0.116 0.572,-0.14L0.572,-0.358Z" style="fill-rule:nonzero;" />
				</g>
				<g transform="matrix(100,0,0,100,696.45,248.492)">
					<path d="M0.59,-0.364C0.629,-0.351 0.659,-0.33 0.682,-0.301C0.705,-0.271 0.716,-0.234 0.716,-0.19C0.716,-0.129 0.693,-0.083 0.646,-0.05C0.599,-0.017 0.531,-0 0.442,-0L0.094,-0L0.094,-0.7L0.422,-0.7C0.505,-0.7 0.568,-0.684 0.613,-0.652C0.658,-0.619 0.68,-0.575 0.68,-0.518C0.68,-0.483 0.672,-0.453 0.656,-0.426C0.64,-0.399 0.618,-0.379 0.59,-0.364ZM0.224,-0.598L0.224,-0.405L0.408,-0.405C0.453,-0.405 0.488,-0.413 0.513,-0.43C0.537,-0.446 0.549,-0.47 0.549,-0.501C0.549,-0.533 0.537,-0.557 0.513,-0.574C0.488,-0.59 0.453,-0.598 0.408,-0.598L0.224,-0.598ZM0.434,-0.102C0.535,-0.102 0.585,-0.136 0.585,-0.203C0.585,-0.27 0.535,-0.304 0.434,-0.304L0.224,-0.304L0.224,-0.102L0.434,-0.102Z" style="fill-rule:nonzero;" />
				</g>
				<g transform="matrix(100,0,0,100,772.55,248.492)">
					<path d="M0.094,-0.7L0.224,-0.7L0.224,-0.11L0.59,-0.11L0.59,-0L0.094,-0L0.094,-0.7Z" style="fill-rule:nonzero;" />
				</g>
				<g transform="matrix(100,0,0,100,831.15,248.492)">
					<path d="M0.421,0.01C0.35,0.01 0.285,-0.006 0.228,-0.037C0.171,-0.068 0.126,-0.111 0.093,-0.166C0.06,-0.221 0.044,-0.282 0.044,-0.35C0.044,-0.418 0.06,-0.48 0.093,-0.535C0.126,-0.59 0.171,-0.632 0.228,-0.664C0.285,-0.695 0.35,-0.71 0.421,-0.71C0.492,-0.71 0.557,-0.695 0.614,-0.664C0.671,-0.632 0.716,-0.59 0.749,-0.535C0.782,-0.48 0.798,-0.419 0.798,-0.35C0.798,-0.281 0.782,-0.22 0.749,-0.165C0.716,-0.11 0.671,-0.068 0.614,-0.037C0.557,-0.006 0.492,0.01 0.421,0.01ZM0.421,-0.104C0.468,-0.104 0.51,-0.115 0.547,-0.136C0.584,-0.157 0.614,-0.186 0.635,-0.224C0.656,-0.261 0.667,-0.303 0.667,-0.35C0.667,-0.397 0.656,-0.439 0.635,-0.476C0.614,-0.514 0.584,-0.544 0.547,-0.565C0.51,-0.586 0.468,-0.596 0.421,-0.596C0.374,-0.596 0.332,-0.586 0.295,-0.565C0.258,-0.544 0.228,-0.514 0.207,-0.476C0.186,-0.439 0.175,-0.397 0.175,-0.35C0.175,-0.303 0.186,-0.261 0.207,-0.224C0.228,-0.186 0.258,-0.157 0.295,-0.136C0.332,-0.115 0.374,-0.104 0.421,-0.104Z" style="fill-rule:nonzero;" />
				</g>
				<g transform="matrix(100,0,0,100,915.35,248.492)">
					<path d="M0.572,-0.358L0.695,-0.358L0.695,-0.079C0.659,-0.05 0.617,-0.028 0.569,-0.013C0.521,0.002 0.472,0.01 0.421,0.01C0.35,0.01 0.285,-0.006 0.228,-0.037C0.171,-0.068 0.126,-0.11 0.093,-0.165C0.06,-0.22 0.044,-0.281 0.044,-0.35C0.044,-0.419 0.06,-0.48 0.093,-0.535C0.126,-0.59 0.171,-0.632 0.229,-0.664C0.286,-0.695 0.351,-0.71 0.423,-0.71C0.482,-0.71 0.535,-0.7 0.583,-0.681C0.631,-0.662 0.671,-0.633 0.704,-0.596L0.622,-0.516C0.569,-0.569 0.504,-0.596 0.429,-0.596C0.38,-0.596 0.336,-0.586 0.298,-0.565C0.259,-0.544 0.229,-0.515 0.207,-0.478C0.186,-0.441 0.175,-0.398 0.175,-0.35C0.175,-0.303 0.186,-0.261 0.207,-0.224C0.229,-0.187 0.259,-0.157 0.298,-0.136C0.336,-0.115 0.379,-0.104 0.428,-0.104C0.483,-0.104 0.531,-0.116 0.572,-0.14L0.572,-0.358Z" style="fill-rule:nonzero;" />
				</g>
			</g>
		</g>
	</g>
</svg>
