<?xml version="1.0" encoding="UTF-8" standalone="no"?>
<!DOCTYPE svg PUBLIC "-//W3C//DTD SVG 1.1//EN" "http://www.w3.org/Graphics/SVG/1.1/DTD/svg11.dtd">
<svg width="100%" height="100%" viewBox="0 0 539 96" version="1.1" xmlns="http://www.w3.org/2000/svg" xmlns:xlink="http://www.w3.org/1999/xlink" xml:space="preserve" xmlns:serif="http://www.serif.com/" style="fill-rule:evenodd;clip-rule:evenodd;stroke-linejoin:round;stroke-miterlimit:2;">
    <g transform="matrix(1,0,0,1,39.8641,-3677.42)">
        <g transform="matrix(4.16667,0,0,4.16667,0,0)">
            <g transform="matrix(0.572638,0.819808,-0.819808,0.572638,755.403,336.137)">
                <path d="M17.454,943.645C16.474,943.645 15.435,943.315 14.432,943.19C11.876,940.856 12.288,936.84 15.284,935.456C16.203,935.031 17.26,934.913 18.215,934.553C20.939,933.523 23.727,932.612 26.331,931.331C29.048,929.992 30.312,927.507 30.353,924.494C30.389,921.81 30.264,919.123 30.258,916.438C30.241,909.051 33.11,905.031 40.074,902.587C42.607,901.698 45.151,900.833 47.643,899.84C51.759,898.201 53.928,895.019 54.429,890.7C54.738,888.034 54.808,885.342 55.09,882.672C55.486,878.935 56.316,875.349 59.135,872.561C61.088,870.63 63.519,869.666 66.122,869.079C68.408,868.563 70.731,868.2 73.013,867.666C74.528,867.312 76.018,866.821 77.489,866.306C79.353,865.652 80.439,864.337 80.678,862.326C80.937,860.145 81.192,857.959 81.575,855.799C82.635,849.83 86.174,845.551 91.092,842.317C91.853,841.816 92.678,841.582 93.484,841.582C94.875,841.582 96.209,842.278 97.063,843.511C98.338,845.352 98.071,848.063 96.101,849.412C91.721,852.412 89.874,856.553 89.643,861.724C89.307,869.228 85.027,873.597 78.024,875.502C75.106,876.295 72.114,876.818 69.15,877.437C65.18,878.264 64.388,879.058 63.941,883.122C63.669,885.596 63.585,888.09 63.37,890.57C62.594,899.505 57.957,905.516 49.579,908.645C47.339,909.481 45.053,910.195 42.803,911.008C39.662,912.142 39.062,912.998 39.089,916.296C39.111,919.079 39.279,921.866 39.2,924.647C39.02,930.993 36.203,935.809 30.705,939.103C26.782,941.454 22.525,942.803 18.085,943.593C17.878,943.63 17.667,943.645 17.454,943.645Z" style="fill:rgb(198,81,142);fill-rule:nonzero;"/>
            </g>
        </g>
    </g>
</svg>
